<svg width="19" height="21" viewBox="0 0 19 21" fill="none" xmlns="http://www.w3.org/2000/svg">
<path d="M16.8889 21H2.11111C0.945177 21 0 20.0598 0 18.9V4.2C0 3.0402 0.945177 2.1 2.11111 2.1H4.22222V0H6.33333V2.1H12.6667V0H14.7778V2.1H16.8889C18.0548 2.1 19 3.0402 19 4.2V18.9C19 20.0598 18.0548 21 16.8889 21ZM2.11111 8.4V18.9H16.8889V8.4H2.11111ZM2.11111 4.2V6.3H16.8889V4.2H2.11111ZM14.7778 16.8H12.6667V14.7H14.7778V16.8ZM10.5556 16.8H8.44444V14.7H10.5556V16.8ZM6.33333 16.8H4.22222V14.7H6.33333V16.8ZM14.7778 12.6H12.6667V10.5H14.7778V12.6ZM10.5556 12.6H8.44444V10.5H10.5556V12.6ZM6.33333 12.6H4.22222V10.5H6.33333V12.6Z" fill="#0085FF"/>
</svg>
