<svg width="15" height="15" viewBox="0 0 15 15" fill="none" xmlns="http://www.w3.org/2000/svg">
<path d="M7.5 9C9.15685 9 10.5 7.65685 10.5 6C10.5 4.34315 9.15685 3 7.5 3C5.84315 3 4.5 4.34315 4.5 6C4.5 7.65685 5.84315 9 7.5 9ZM7.5 4.5C8.32843 4.5 9 5.17157 9 6C9 6.82843 8.32843 7.5 7.5 7.5C6.67157 7.5 6 6.82843 6 6C6 5.17157 6.67157 4.5 7.5 4.5Z" fill="#D0D0D0"/>
<path d="M1.5 15C0.671573 15 0 14.3284 0 13.5V1.5C0 0.671573 0.671573 0 1.5 0H13.5C14.3284 0 15 0.671573 15 1.5V13.5C15 14.3284 14.3284 15 13.5 15H1.5ZM1.5 1.5V13.5H3.75C3.75 11.4289 5.42893 9.75 7.5 9.75C9.57107 9.75 11.25 11.4289 11.25 13.5H13.5V1.5H1.5ZM9.75 13.5C9.75 12.2574 8.74264 11.25 7.5 11.25C6.25736 11.25 5.25 12.2574 5.25 13.5H9.75Z" fill="#D0D0D0"/>
</svg>
