<svg width="22" height="22" viewBox="0 0 22 22" fill="none" xmlns="http://www.w3.org/2000/svg">
<path fill-rule="evenodd" clip-rule="evenodd" d="M0 2.5C0 1.11928 1.11929 0 2.5 0H19.5C20.8807 0 22 1.11929 22 2.5V19.5C22 20.8807 20.8807 22 19.5 22H2.5C1.1193 22 0 20.8807 0 19.5V2.5ZM17 2V9.99999C17 10.5523 16.5523 11 16 11H6.5C5.94772 11 5.5 10.5523 5.5 9.99999V2H2.5C2.22386 2 2 2.22386 2 2.5V19.5C2 19.7761 2.22385 20 2.5 20H19.5C19.7762 20 20 19.7762 20 19.5V2.5C20 2.22385 19.7762 2 19.5 2H17ZM7.5 2V8.99999H15V2H7.5ZM12.5 3.49999C13.0523 3.49999 13.5 3.94771 13.5 4.49999V6.49999C13.5 7.05227 13.0523 7.49999 12.5 7.49999C11.9477 7.49999 11.5 7.05227 11.5 6.49999V4.49999C11.5 3.94771 11.9477 3.49999 12.5 3.49999Z" fill="#ECEEF5"/>
</svg>
