<svg width="28" height="28" viewBox="0 0 28 28" fill="none" xmlns="http://www.w3.org/2000/svg">
<path d="M27.9025 14.0041C27.9025 13.13 27.8205 12.255 27.6581 11.4056C27.5848 11.021 27.2481 10.7432 26.8572 10.7432H14.0437C13.5931 10.7432 13.2285 11.1078 13.2285 11.5584V16.4497C13.2285 16.9003 13.5931 17.2649 14.0437 17.2649H20.618C20.2084 18.0942 19.6439 18.8137 18.981 19.419L23.5887 24.0266C26.2398 21.5008 27.9025 17.9464 27.9025 14.0041Z" fill="#0085FF"/>
<path d="M13.9892 6.61258C15.5886 6.61258 17.1099 7.12052 18.3885 8.0822C18.7117 8.32503 19.1679 8.29557 19.4544 8.00655L22.9335 4.52752C23.0951 4.36589 23.1819 4.14377 23.1715 3.91529C23.1612 3.68681 23.0561 3.47344 22.8809 3.32616C20.3915 1.23963 17.2333 0.0908203 13.9892 0.0908203C9.21474 0.0908203 4.99685 2.51768 2.50342 6.20236L7.28865 10.9876C8.43028 8.41606 10.9989 6.61258 13.9892 6.61258Z" fill="#0085FF"/>
<path d="M13.9892 27.9168C17.1013 27.9168 19.9671 26.8733 22.2828 25.1349L17.5887 20.4408C16.5157 21.0449 15.2894 21.395 13.9892 21.395C10.9989 21.395 8.43028 19.5915 7.28865 17.02L2.50342 21.8053C4.99685 25.4899 9.21474 27.9168 13.9892 27.9168Z" fill="#0085FF"/>
<path d="M6.71663 15.1782C6.65418 14.7935 6.59793 14.406 6.59793 14.004C6.59793 13.602 6.65418 13.2145 6.71663 12.8298L1.60118 7.71436C0.633347 9.60458 0.0761719 11.7386 0.0761719 14.004C0.0761719 16.2694 0.633348 18.4034 1.60123 20.2936L6.71663 15.1782Z" fill="#0085FF"/>
</svg>
