<svg width="22" height="28" viewBox="0 0 22 28" fill="none" xmlns="http://www.w3.org/2000/svg">
<path d="M19.25 28H2.75C1.23122 28 0 26.7465 0 25.2001V2.8011C0 1.25477 1.23122 0.00122001 2.75 0.00122001H12.375C12.3873 -0.00040667 12.3998 -0.00040667 12.4121 0.00122001H12.4204C12.4334 0.00536111 12.4467 0.00817489 12.4603 0.00961964C12.5815 0.0175338 12.7012 0.0415357 12.8164 0.0810165H12.837H12.8576H12.8741C12.8995 0.0991118 12.9234 0.119242 12.9456 0.141214C13.0954 0.209004 13.2319 0.303865 13.3485 0.421202L21.5985 8.82084C21.7137 8.93953 21.8069 9.0785 21.8735 9.23102C21.8859 9.26182 21.8955 9.29121 21.9051 9.32341V9.34301V9.36261C21.9435 9.47935 21.9662 9.60085 21.9725 9.7238C21.9737 9.73774 21.9769 9.75143 21.9821 9.76439V9.77279C21.9891 9.78141 21.9951 9.7908 22 9.80079V25.2001C22 26.7465 20.7688 28 19.25 28ZM2.75 2.8011V25.2001H19.25V11.2007H12.375C11.6156 11.2007 11 10.574 11 9.80079V2.8011H2.75ZM13.75 4.78061V8.40085H17.3057L13.75 4.78061ZM12.375 22.4002H9.625V19.6004H6.875V16.8005H9.625V14.0006H12.375V16.8005H15.125V19.6004H12.375V22.4002Z" fill="white"/>
</svg>
