<svg width="23" height="28" viewBox="0 0 23 28" fill="none" xmlns="http://www.w3.org/2000/svg">
<path d="M20.125 28H2.875C1.28718 28 0 26.7464 0 25.2V2.80001C0 1.25362 1.28718 8.64377e-06 2.875 8.64377e-06H12.9375C13.319 -0.00130191 13.6851 0.146464 13.9538 0.410217L22.5788 8.81021C22.8496 9.07191 23.0013 9.42846 23 9.8V25.2C23 26.7464 21.7128 28 20.125 28ZM2.875 2.80002V25.2H18.0924L14.4037 21.6076C13.5271 22.1223 12.5236 22.3962 11.5 22.4C8.85672 22.4279 6.52695 20.7154 5.82971 18.2321C5.13246 15.7488 6.24332 13.12 8.53335 11.834C10.8234 10.5481 13.7159 10.9288 15.5734 12.7606C17.4308 14.5924 17.7854 17.414 16.4364 19.628L20.125 23.2232V10.3796L12.3424 2.80002H2.875ZM11.5 14C9.91218 14 8.625 15.2536 8.625 16.8C8.625 18.3464 9.91218 19.6 11.5 19.6C13.0878 19.6 14.375 18.3464 14.375 16.8C14.375 15.2536 13.0878 14 11.5 14Z" fill="white"/>
</svg>
