<svg width="35" height="35" viewBox="0 0 35 35" fill="none" xmlns="http://www.w3.org/2000/svg">
<path d="M17.5365 35C8.19058 34.9919 0.490263 27.6644 0.0223611 18.3336C-0.445541 9.00294 6.48311 0.942301 15.7814 0V7.08807C10.4995 7.98036 6.73175 12.6975 7.03053 18.0439C7.32931 23.3903 11.5992 27.6586 16.9476 27.9573C22.296 28.256 27.0149 24.4896 27.9075 19.2097H34.9982C34.0852 28.169 26.5438 34.9879 17.5347 35H17.5365ZM35 15.7008H27.9093C27.1623 11.2895 23.7047 7.83383 19.2916 7.08807V0C27.5882 0.849133 34.1479 7.4056 34.9982 15.699L35 15.7008Z" fill="#ECEEF5"/>
</svg>
