<svg width="24" height="24" viewBox="0 0 24 24" fill="none" xmlns="http://www.w3.org/2000/svg">
<path d="M12 24C5.37258 24 0 18.6274 0 12C0 5.37258 5.37258 0 12 0C18.6274 0 24 5.37258 24 12C23.9927 18.6244 18.6244 23.9927 12 24ZM11.9808 21.6H12C17.3001 21.5947 21.5931 17.2953 21.5904 11.9952C21.5877 6.69515 17.2905 2.4 11.9904 2.4C6.69034 2.4 2.39305 6.69515 2.3904 11.9952C2.38775 17.2953 6.68074 21.5947 11.9808 21.6ZM9.6 18L4.8 13.2L6.492 11.508L9.6 14.604L17.508 6.696L19.2 8.4L9.6 18Z" fill="#0085FF"/>
</svg>
