<svg width="39" height="22" viewBox="0 0 39 22" fill="none" xmlns="http://www.w3.org/2000/svg">
<path d="M38.7971 19.8091C38.7507 19.7092 38.7075 19.6263 38.6674 19.5599C38.0031 18.3635 36.7337 16.8951 34.86 15.1541L34.8204 15.1143L34.8005 15.0947L34.7805 15.0747H34.7604C33.91 14.264 33.3715 13.7189 33.146 13.4398C32.7333 12.9082 32.6409 12.3701 32.8664 11.8249C33.0257 11.413 33.6242 10.543 34.6605 9.21386C35.2056 8.50945 35.6373 7.94489 35.9561 7.51955C38.2553 4.46284 39.2521 2.50957 38.9463 1.65895L38.8275 1.46018C38.7477 1.34051 38.5418 1.23103 38.2099 1.13119C37.8773 1.03155 37.4522 1.01508 36.9337 1.08147L31.1929 1.12113C31.0999 1.08818 30.9671 1.09125 30.7941 1.13119C30.6213 1.17112 30.5348 1.19116 30.5348 1.19116L30.4349 1.24108L30.3556 1.30106C30.2891 1.34071 30.216 1.41047 30.1362 1.51017C30.0569 1.60952 29.9905 1.72612 29.9374 1.85899C29.3124 3.467 28.6017 4.96205 27.8042 6.34406C27.3124 7.16815 26.8609 7.88233 26.4484 8.48704C26.0366 9.09154 25.691 9.53692 25.4122 9.82241C25.1329 10.1082 24.8808 10.3371 24.6545 10.5101C24.4285 10.6831 24.256 10.7562 24.1365 10.7294C24.0167 10.7027 23.904 10.6762 23.7972 10.6496C23.6113 10.53 23.4618 10.3672 23.349 10.1612C23.2357 9.95528 23.1595 9.69604 23.1196 9.38373C23.08 9.07122 23.0565 8.80242 23.0498 8.57641C23.0436 8.35068 23.0465 8.0314 23.0599 7.61946C23.0738 7.20731 23.08 6.92846 23.08 6.78225C23.08 6.27718 23.0898 5.72902 23.1096 5.13765C23.1297 4.54628 23.146 4.07772 23.1596 3.73253C23.1731 3.38699 23.1794 3.02141 23.1794 2.63601C23.1794 2.25061 23.1559 1.94836 23.1096 1.72898C23.0638 1.50989 22.9935 1.29722 22.9008 1.09104C22.8076 0.885072 22.6712 0.725743 22.4922 0.612635C22.3128 0.499667 22.0898 0.410018 21.8244 0.34341C21.12 0.184012 20.223 0.0977847 19.1331 0.0843793C16.6614 0.0578478 15.0732 0.217455 14.3689 0.562993C14.0898 0.708986 13.8372 0.908461 13.6115 1.16079C13.3722 1.45326 13.3388 1.61287 13.5115 1.63912C14.309 1.75859 14.8736 2.04436 15.2059 2.49616L15.3256 2.73557C15.4187 2.90831 15.5117 3.21412 15.6048 3.65258C15.6977 4.09105 15.7577 4.57609 15.7841 5.10742C15.8504 6.0777 15.8504 6.90828 15.7841 7.59921C15.7176 8.29043 15.6547 8.82853 15.5947 9.21393C15.5348 9.59934 15.4451 9.91164 15.3256 10.1508C15.2059 10.39 15.1262 10.5362 15.0863 10.5892C15.0464 10.6423 15.0132 10.6757 14.9868 10.6889C14.814 10.7551 14.6344 10.7888 14.4484 10.7888C14.2622 10.7888 14.0364 10.6956 13.7707 10.5095C13.505 10.3234 13.2293 10.0677 12.9436 9.74205C12.6578 9.41634 12.3355 8.96119 11.9766 8.37652C11.6179 7.79185 11.2457 7.10084 10.8603 6.3035L10.5415 5.72525C10.3421 5.35325 10.0698 4.81159 9.72431 4.10076C9.37856 3.38964 9.07296 2.70178 8.8073 2.03731C8.7011 1.75824 8.54156 1.54578 8.32896 1.39957L8.22919 1.3396C8.16286 1.28653 8.05639 1.23019 7.91032 1.17015C7.76405 1.11017 7.61142 1.06716 7.45182 1.0407L1.98989 1.08036C1.43175 1.08036 1.05305 1.2068 0.853646 1.45934L0.773842 1.5788C0.733975 1.64534 0.713867 1.7516 0.713867 1.89788C0.713867 2.04408 0.753734 2.22352 0.833538 2.43598C1.63088 4.30994 2.49797 6.11722 3.43481 7.8581C4.37165 9.59899 5.18575 11.0013 5.87661 12.0638C6.56762 13.1271 7.27196 14.1306 7.98964 15.0739C8.70731 16.0175 9.18237 16.6222 9.4148 16.8879C9.64751 17.154 9.83029 17.353 9.96316 17.4859L10.4616 17.9642C10.7805 18.2832 11.2489 18.6653 11.8669 19.1104C12.485 19.5558 13.1693 19.9942 13.9201 20.4265C14.6711 20.858 15.5448 21.2102 16.5416 21.4826C17.5382 21.7552 18.5083 21.8646 19.4519 21.8118H21.7444C22.2093 21.7717 22.5616 21.6255 22.801 21.3732L22.8803 21.2733C22.9336 21.1939 22.9836 21.0707 23.0296 20.9049C23.0763 20.7388 23.0995 20.5558 23.0995 20.3567C23.0858 19.7854 23.1293 19.2705 23.2288 18.812C23.3281 18.3538 23.4414 18.0082 23.568 17.7755C23.6946 17.543 23.8375 17.3468 23.9964 17.1878C24.1558 17.0284 24.2693 16.9318 24.3359 16.8986C24.4021 16.8651 24.4549 16.8424 24.4948 16.8288C24.8137 16.7226 25.1891 16.8255 25.6214 17.138C26.0534 17.4504 26.4586 17.836 26.8375 18.2943C27.2163 18.753 27.6714 19.2676 28.2029 19.839C28.7347 20.4105 29.1997 20.8354 29.5982 21.1148L29.9967 21.354C30.2629 21.5136 30.6084 21.6599 31.0338 21.7927C31.4583 21.9255 31.8303 21.9587 32.1498 21.8924L37.2527 21.8128C37.7574 21.8128 38.1501 21.7292 38.4287 21.5634C38.7079 21.3973 38.8737 21.2143 38.9272 21.0152C38.9805 20.8159 38.9834 20.5899 38.9373 20.3371C38.89 20.085 38.8434 19.9087 38.7971 19.8091Z" fill="#0085FF"/>
</svg>
