<svg width="119" height="119" viewBox="0 0 119 119" fill="none" xmlns="http://www.w3.org/2000/svg">
<rect width="119" height="119" rx="18" fill="#171717"/>
<path fill-rule="evenodd" clip-rule="evenodd" d="M87.7 81.6455H86.3V84.4455H83.5V85.8455H86.3V88.6455H87.7V85.8455H90.5V84.4455H87.7V81.6455ZM87 78.1455C83.136 78.1455 80 81.2815 80 85.1455C80 89.0095 83.136 92.1455 87 92.1455C90.864 92.1455 94 89.0095 94 85.1455C94 81.2815 90.864 78.1455 87 78.1455ZM87 90.7455C83.913 90.7455 81.4 88.2325 81.4 85.1455C81.4 82.0585 83.913 79.5455 87 79.5455C90.087 79.5455 92.6 82.0585 92.6 85.1455C92.6 88.2325 90.087 90.7455 87 90.7455Z" fill="white"/>
<path fill-rule="evenodd" clip-rule="evenodd" d="M82.53 55.1811C82.53 55.1811 82.0703 51.9194 80.6618 50.4833C78.8743 48.5974 76.8709 48.5886 75.9529 48.4792C69.3759 48 59.5103 48 59.5103 48H59.4897C59.4897 48 49.6241 48 43.0471 48.4792C42.1276 48.5886 40.1257 48.5974 38.3368 50.4833C36.9282 51.9197 36.47 55.1811 36.47 55.1811C36.47 55.1811 36 59.0123 36 62.8417V66.4332C36 70.264 36.47 74.0938 36.47 74.0938C36.47 74.0938 36.9282 77.3555 38.3368 78.7916C40.1257 80.6775 42.4742 80.6184 43.52 80.8152C47.28 81.1791 59.5 81.2914 59.5 81.2914C59.5 81.2914 69.3759 81.2767 75.9529 80.7976C76.8709 80.6867 78.8743 80.6779 80.6618 78.792C82.0703 77.3555 82.53 74.0942 82.53 74.0942C82.53 74.0942 83 70.2644 83 66.4332V62.8417C83 59.0123 82.53 55.1811 82.53 55.1811ZM54.6472 70.7851L54.6458 57.4859L67.3446 64.1585L54.6472 70.7851Z" fill="#0085FF"/>
</svg>
