<svg width="306" height="119" viewBox="0 0 306 119" fill="none" xmlns="http://www.w3.org/2000/svg">
<g filter="url(#filter0_dd)">
<path d="M56.141 88.64C52.173 88.64 48.6103 87.872 45.453 86.336C42.3383 84.8 39.885 82.6453 38.093 79.872C36.3437 77.0987 35.469 73.9627 35.469 70.464C35.469 66.9653 36.3437 63.8507 38.093 61.12C39.885 58.3467 42.3383 56.192 45.453 54.656C48.6103 53.12 52.173 52.352 56.141 52.352C60.4077 52.352 64.0557 53.2693 67.085 55.104C70.1143 56.9387 72.205 59.4773 73.357 62.72L62.157 68.224C60.7917 65.152 58.765 63.616 56.077 63.616C54.3703 63.616 52.941 64.2133 51.789 65.408C50.6797 66.6027 50.125 68.288 50.125 70.464C50.125 72.6827 50.6797 74.3893 51.789 75.584C52.941 76.7787 54.3703 77.376 56.077 77.376C58.765 77.376 60.7917 75.84 62.157 72.768L73.357 78.272C72.205 81.5147 70.1143 84.0533 67.085 85.888C64.0557 87.7227 60.4077 88.64 56.141 88.64ZM76.7 40.512H91.164V88H76.7V40.512ZM97.575 52.992H112.039V88H97.575V52.992ZM104.807 50.176C102.204 50.176 100.092 49.4933 98.471 48.128C96.8923 46.72 96.103 44.9493 96.103 42.816C96.103 40.6827 96.8923 38.9333 98.471 37.568C100.092 36.16 102.204 35.456 104.807 35.456C107.452 35.456 109.564 36.1173 111.143 37.44C112.722 38.7627 113.511 40.4693 113.511 42.56C113.511 44.7787 112.722 46.6133 111.143 48.064C109.564 49.472 107.452 50.176 104.807 50.176ZM137.266 88.64C133.298 88.64 129.735 87.872 126.578 86.336C123.463 84.8 121.01 82.6453 119.218 79.872C117.469 77.0987 116.594 73.9627 116.594 70.464C116.594 66.9653 117.469 63.8507 119.218 61.12C121.01 58.3467 123.463 56.192 126.578 54.656C129.735 53.12 133.298 52.352 137.266 52.352C141.533 52.352 145.181 53.2693 148.21 55.104C151.239 56.9387 153.33 59.4773 154.482 62.72L143.282 68.224C141.917 65.152 139.89 63.616 137.202 63.616C135.495 63.616 134.066 64.2133 132.914 65.408C131.805 66.6027 131.25 68.288 131.25 70.464C131.25 72.6827 131.805 74.3893 132.914 75.584C134.066 76.7787 135.495 77.376 137.202 77.376C139.89 77.376 141.917 75.84 143.282 72.768L154.482 78.272C153.33 81.5147 151.239 84.0533 148.21 85.888C145.181 87.7227 141.533 88.64 137.266 88.64ZM174.593 77.248L172.289 79.744V88H157.825V40.512H172.289V63.168L182.337 52.992H199.425L184.961 68.16L200.577 88H183.105L174.593 77.248ZM224.489 72.96C222.995 72.96 221.651 72.704 220.457 72.192C219.305 71.6373 218.067 70.8907 216.745 69.952C215.806 69.312 215.081 68.864 214.569 68.608C214.057 68.3093 213.523 68.16 212.969 68.16C212.03 68.16 211.262 68.5227 210.665 69.248C210.067 69.9307 209.747 70.912 209.705 72.192H200.873C200.915 67.7973 201.939 64.3413 203.945 61.824C205.993 59.3067 208.617 58.048 211.817 58.048C213.31 58.048 214.633 58.3253 215.785 58.88C216.979 59.392 218.238 60.1173 219.561 61.056C220.499 61.696 221.225 62.1653 221.737 62.464C222.249 62.72 222.782 62.848 223.337 62.848C224.275 62.848 225.043 62.5067 225.641 61.824C226.238 61.0987 226.558 60.096 226.601 58.816H235.433C235.39 63.2107 234.345 66.6667 232.297 69.184C230.291 71.7013 227.689 72.96 224.489 72.96ZM256.88 52.352C263.024 52.352 267.717 53.7387 270.96 56.512C274.203 59.2427 275.824 63.4667 275.824 69.184V88H262.384V83.392C260.72 86.8907 257.413 88.64 252.464 88.64C249.691 88.64 247.323 88.1707 245.36 87.232C243.44 86.2507 241.968 84.9493 240.944 83.328C239.963 81.664 239.472 79.808 239.472 77.76C239.472 74.304 240.795 71.68 243.44 69.888C246.085 68.096 250.096 67.2 255.472 67.2H261.296C260.827 64.4693 258.629 63.104 254.704 63.104C253.125 63.104 251.525 63.36 249.904 63.872C248.283 64.3413 246.896 65.0027 245.744 65.856L241.136 56.32C243.141 55.0827 245.552 54.1227 248.368 53.44C251.227 52.7147 254.064 52.352 256.88 52.352ZM256.816 79.936C257.84 79.936 258.757 79.6587 259.568 79.104C260.379 78.5493 260.976 77.7173 261.36 76.608V74.176H257.776C254.832 74.176 253.36 75.1573 253.36 77.12C253.36 77.9307 253.659 78.6133 254.256 79.168C254.896 79.68 255.749 79.936 256.816 79.936Z" fill="#0085FF"/>
</g>
<defs>
<filter id="filter0_dd" x="0.469238" y="0.456055" width="305.355" height="118.184" filterUnits="userSpaceOnUse" color-interpolation-filters="sRGB">
<feFlood flood-opacity="0" result="BackgroundImageFix"/>
<feColorMatrix in="SourceAlpha" type="matrix" values="0 0 0 0 0 0 0 0 0 0 0 0 0 0 0 0 0 0 127 0"/>
<feOffset dx="-10" dy="-10"/>
<feGaussianBlur stdDeviation="12.5"/>
<feColorMatrix type="matrix" values="0 0 0 0 0.0416667 0 0 0 0 0.0407986 0 0 0 0 0.0407986 0 0 0 0.8 0"/>
<feBlend mode="normal" in2="BackgroundImageFix" result="effect1_dropShadow"/>
<feColorMatrix in="SourceAlpha" type="matrix" values="0 0 0 0 0 0 0 0 0 0 0 0 0 0 0 0 0 0 127 0"/>
<feOffset dx="10" dy="10"/>
<feGaussianBlur stdDeviation="10"/>
<feColorMatrix type="matrix" values="0 0 0 0 0.158333 0 0 0 0 0.158333 0 0 0 0 0.158333 0 0 0 0.8 0"/>
<feBlend mode="normal" in2="effect1_dropShadow" result="effect2_dropShadow"/>
<feBlend mode="normal" in="SourceGraphic" in2="effect2_dropShadow" result="shape"/>
</filter>
</defs>
</svg>
