<svg width="15" height="28" viewBox="0 0 15 28" fill="none" xmlns="http://www.w3.org/2000/svg">
<path d="M3.04273 5.39129C3.04273 5.21715 3.06692 4.84104 3.11529 4.26539C3.16729 3.68852 3.38498 3.08506 3.7756 2.45136C4.16259 1.82008 4.79024 1.25289 5.6634 0.751008C6.53292 0.251545 7.78944 0 9.42932 0H14.049V5.03453H10.6665C10.3315 5.03453 10.0195 5.16031 9.73771 5.40822C9.45834 5.65614 9.31443 5.89196 9.31443 6.11086V9.24308H14.0478C13.9983 9.85622 13.9438 10.4524 13.8809 11.0281L13.6935 12.5494C13.6185 13.0634 13.5423 13.5399 13.4673 13.9789H9.28057V27.9372H3.04273V13.9777H0V9.24308H3.04273V5.39129Z" fill="#0085FF"/>
</svg>
