<svg width="35" height="36" viewBox="0 0 35 36" fill="none" xmlns="http://www.w3.org/2000/svg">
<path d="M20.7841 36H14.2184C13.3708 36 12.6375 35.4114 12.4561 34.5852L11.7219 31.194C10.7426 30.7658 9.81395 30.2303 8.95314 29.5974L5.63961 30.6504C4.83152 30.9076 3.95305 30.5681 3.52919 29.835L0.2391 24.1632C-0.18012 23.4297 -0.03569 22.5045 0.587229 21.933L3.15761 19.593C3.04072 18.533 3.04072 17.4634 3.15761 16.4034L0.587229 14.0688C-0.0366076 13.4971 -0.181094 12.5707 0.2391 11.8368L3.52197 6.1614C3.94584 5.42826 4.8243 5.08884 5.63239 5.346L8.94593 6.399C9.38616 6.07348 9.84445 5.773 10.3186 5.499C10.7738 5.24285 11.2422 5.01092 11.7219 4.8042L12.4579 1.4166C12.6384 0.590344 13.3709 0.000889907 14.2184 0H20.7841C21.6315 0.000889907 22.3641 0.590344 22.5446 1.4166L23.2878 4.806C23.7942 5.02833 24.2875 5.27954 24.765 5.5584C25.2105 5.81546 25.641 6.09731 26.0547 6.4026L29.3701 5.3496C30.1776 5.0934 31.055 5.43269 31.4787 6.165L34.7616 11.8404C35.1808 12.5739 35.0364 13.4991 34.4134 14.0706L31.8431 16.4106C31.96 17.4706 31.96 18.5402 31.8431 19.6002L34.4134 21.9402C35.0364 22.5117 35.1808 23.4369 34.7616 24.1704L31.4787 29.8458C31.055 30.5781 30.1776 30.9174 29.3701 30.6612L26.0547 29.6082C25.6352 29.9165 25.1993 30.202 24.7488 30.4632C24.2759 30.7366 23.7881 30.9836 23.2878 31.203L22.5446 34.5852C22.3634 35.4107 21.631 35.9993 20.7841 36ZM9.6007 25.6122L11.0798 26.6922C11.4132 26.9373 11.7607 27.1627 12.1206 27.3672C12.4591 27.5629 12.8078 27.7407 13.165 27.9L14.8479 28.6362L15.6722 32.4H19.3339L20.1582 28.6344L21.8411 27.8982C22.5758 27.5749 23.2731 27.1729 23.9209 26.6994L25.4018 25.6194L29.0833 26.7894L30.9141 23.625L28.0587 21.0276L28.2608 19.206C28.3495 18.4093 28.3495 17.6051 28.2608 16.8084L28.0587 14.9868L30.9159 12.384L29.0833 9.2178L25.4018 10.3878L23.9209 9.3078C23.2729 8.83208 22.5757 8.42716 21.8411 8.1L20.1582 7.3638L19.3339 3.6H15.6722L14.8443 7.3656L13.165 8.1C12.8075 8.25668 12.4588 8.43274 12.1206 8.6274C11.763 8.83139 11.4173 9.05555 11.0852 9.2988L9.60431 10.3788L5.9246 9.2088L4.09016 12.384L6.94554 14.9778L6.74352 16.8012C6.65478 17.5979 6.65478 18.4021 6.74352 19.1988L6.94554 21.0204L4.09016 23.6178L5.921 26.7822L9.6007 25.6122ZM17.494 25.2C13.5092 25.2 10.2789 21.9764 10.2789 18C10.2789 14.0236 13.5092 10.8 17.494 10.8C21.4788 10.8 24.7091 14.0236 24.7091 18C24.7042 21.9744 21.4768 25.195 17.494 25.2ZM17.494 14.4C15.5232 14.402 13.9187 15.9819 13.8905 17.9484C13.8623 19.9149 15.4207 21.5401 17.3906 21.5984C19.3606 21.6568 21.0129 20.1267 21.1016 18.162V18.882V18C21.1016 16.0118 19.4864 14.4 17.494 14.4Z" fill="#D0D0D0"/>
</svg>
