<svg width="20" height="18" viewBox="0 0 20 18" fill="none" xmlns="http://www.w3.org/2000/svg">
<path d="M19.0278 18H0.974114C0.626092 18 0.304511 17.8094 0.130504 17.5C-0.0435034 17.1905 -0.0435011 16.8093 0.13051 16.4999L9.15688 0.499116C9.33103 0.190212 9.65234 0 10 0C10.3477 0 10.669 0.190212 10.8431 0.499116L19.8695 16.4999C20.0434 16.8092 20.0435 17.1902 19.8697 17.4995C19.696 17.8089 19.3747 17.9996 19.0269 18H19.0278ZM9.02732 12.9997V14.9998H9.93619H9.99951H10.0628H10.9737V12.9997H9.02732ZM9.02732 5.99939V10.9996H10.9756V5.99939H9.02732Z" fill="#D0D0D0"/>
</svg>
